<svg width="24" height="24" viewBox="0 0 24 24" fill="none" xmlns="http://www.w3.org/2000/svg">
<path d="M12 9C13.66 9 15 10.34 15 12C15 13.66 13.66 15 12 15C10.34 15 9 13.66 9 12C9 10.34 10.34 9 12 9Z" stroke="#1531CE" stroke-width="2" stroke-linecap="round" stroke-linejoin="round"/>
<path d="M15.24 6.36992C15.65 6.59992 16.04 6.87992 16.38 7.19992C16.38 7.19992 19 6.11992 19.01 6.13992L20.57 8.83992C20.58 8.86992 18.35 10.5899 18.35 10.5899C18.45 11.0399 18.5 11.5199 18.5 11.9999" stroke="#1531CE" stroke-width="2" stroke-linecap="round" stroke-linejoin="round"/>
<path d="M18.5 11.99C18.51 12.46 18.46 12.94 18.35 13.39C18.35 13.39 20.6 15.12 20.58 15.14L19.02 17.84C19 17.86 16.39 16.79 16.39 16.79C16.05 17.1 15.66 17.38 15.24 17.62" stroke="#1531CE" stroke-width="2" stroke-linecap="round" stroke-linejoin="round"/>
<path d="M15.26 17.6201C14.86 17.8601 14.42 18.0601 13.97 18.1901C13.97 18.1901 13.6 21.0001 13.57 21.0001H10.45C10.42 20.9901 10.04 18.2001 10.04 18.2001C9.59999 18.0601 9.15999 17.8601 8.73999 17.6201" stroke="#1531CE" stroke-width="2" stroke-linecap="round" stroke-linejoin="round"/>
<path d="M8.76 17.63C8.35 17.4 7.96 17.12 7.62 16.8C7.62 16.8 5 17.88 4.99 17.86L3.43 15.16C3.42 15.13 5.65 13.41 5.65 13.41C5.55 12.96 5.5 12.48 5.5 12" stroke="#1531CE" stroke-width="2" stroke-linecap="round" stroke-linejoin="round"/>
<path d="M5.49999 12.0099C5.48999 11.5399 5.53999 11.0599 5.64999 10.6099C5.64999 10.6099 3.39999 8.87994 3.41999 8.85994L4.97999 6.15994C4.99999 6.13994 7.60999 7.20995 7.60999 7.20995C7.94999 6.89995 8.33999 6.61995 8.75999 6.37995" stroke="#1531CE" stroke-width="2" stroke-linecap="round" stroke-linejoin="round"/>
<path d="M8.73999 6.38C9.13999 6.14 9.57999 5.94 10.03 5.81C10.03 5.81 10.4 3 10.43 3H13.55C13.58 3.01 13.96 5.8 13.96 5.8C14.4 5.94 14.84 6.14 15.26 6.38" stroke="#1531CE" stroke-width="2" stroke-linecap="round" stroke-linejoin="round"/>
</svg>
