<svg width="24" height="24" viewBox="0 0 24 24" fill="none" xmlns="http://www.w3.org/2000/svg">
<path d="M19.89 7.33989C19.8 7.66989 19.4 8.49989 18.72 9.28989C18.27 17.9699 9.85 20.7899 4.08 17.8799C3.29 16.8299 6.93 17.2599 8.26 15.2499C3.23 12.6799 3.63 5.80989 4.64 6.08989C7.01 9.27989 10.83 9.56989 11.45 9.27989C11.45 8.54989 11.14 6.95989 12.86 5.62989C13.85 4.91989 15.92 4.28989 17.79 6.31989C18.11 6.52989 18.57 6.61989 19.26 6.46989C19.67 6.25989 20.21 6.39989 19.93 7.12989L19.89 7.33989Z" stroke="#FFFCF2" stroke-width="2" stroke-linecap="round" stroke-linejoin="round"/>
</svg>
